<svg xmlns="http://www.w3.org/2000/svg" viewBox="0 0 15.03 15.3"><defs><style>.cls-1{fill:#ee3433;fill-rule:evenodd;}</style></defs><title>like_red</title><g id="Layer_2" data-name="Layer 2"><g id="Layer_1-2" data-name="Layer 1"><path class="cls-1" d="M0,5.76H3.7a.77.77,0,0,1,.4.1c1,.65,1.6.66,2.18-.37A19.45,19.45,0,0,0,7.6,1.95,7.12,7.12,0,0,0,7.66.67c.08-.69.44-.85,1-.46A2.63,2.63,0,0,1,9.85,2.5c0,.81-.07,1.63-.12,2.61,1.15,0,2.28,0,3.41,0,.77,0,1.65-.06,1.87.83a3.58,3.58,0,0,1-.4,1.9,1.92,1.92,0,0,1-.18,2.2,4.4,4.4,0,0,0-.66,2.41,1.28,1.28,0,0,1-1.18,1.37,15.76,15.76,0,0,1-7,.32c-.37-.08-.76-.11-1.25-.18.15,1.36-.65,1.38-1.59,1.32s-1.78,0-2.75,0Zm2.79,7.76c-.46-.39-.72-.78-.92-.76a1.12,1.12,0,0,0-.75.62c-.05.14.34.64.56.67S2.26,13.79,2.79,13.52Z"/></g></g></svg>